<svg xmlns="http://www.w3.org/2000/svg" width="32" height="32" viewBox="0 0 32 32"><g id="msgsic_5" transform="translate(-393 -823)"><g id="그룹_3802" data-name="그룹 3802" transform="translate(-3319.578 -431.658)"><g id="그룹_3801" data-name="그룹 3801" transform="translate(3721.588 1262.964)"><path id="패스_1949" fill="none" stroke="#f0b90b" stroke-miterlimit="10" stroke-width="1" d="M3736.584,1276.941l1.74-.839.144,1.926,1.6,1.087-1.6,1.087-.144,1.926-1.74-.839-1.74.839-.144-1.926-1.6-1.087,1.6-1.087.144-1.926Z" data-name="패스 1949" transform="translate(-3729.594 -1271.421)"/><g id="그룹_3798" data-name="그룹 3798" transform="translate(4.961)"><line id="선_195" y2="15.388" fill="none" stroke="#f0b90b" stroke-miterlimit="10" stroke-width="1" data-name="선 195" transform="translate(2.019)"/><line id="선_196" x2="2.015" y1="1.791" fill="none" stroke="#f0b90b" stroke-miterlimit="10" stroke-width="1" data-name="선 196" transform="translate(2.043 1.49)"/><line id="선_197" x1="2.015" y1="1.791" fill="none" stroke="#f0b90b" stroke-miterlimit="10" stroke-width="1" data-name="선 197" transform="translate(0 1.49)"/><line id="선_198" x2="2.015" y2="1.791" fill="none" stroke="#f0b90b" stroke-miterlimit="10" stroke-width="1" data-name="선 198" transform="translate(2.043 12.205)"/><line id="선_199" x1="2.015" y2="1.791" fill="none" stroke="#f0b90b" stroke-miterlimit="10" stroke-width="1" data-name="선 199" transform="translate(0 12.205)"/></g><g id="그룹_3799" data-name="그룹 3799" transform="translate(0 2.647)"><line id="선_200" x2="13.97" y2="8.065" fill="none" stroke="#f0b90b" stroke-miterlimit="10" stroke-width="1" data-name="선 200" transform="translate(0 1.02)"/><line id="선_201" x1=".544" y1="2.64" fill="none" stroke="#f0b90b" stroke-miterlimit="10" stroke-width="1" data-name="선 201" transform="translate(2.31)"/><line id="선_202" x1="2.558" y2=".849" fill="none" stroke="#f0b90b" stroke-miterlimit="10" stroke-width="1" data-name="선 202" transform="translate(0.281 2.664)"/><line id="선_203" x2="2.558" y1=".849" fill="none" stroke="#f0b90b" stroke-miterlimit="10" stroke-width="1" data-name="선 203" transform="translate(11.225 6.624)"/><line id="선_204" x2=".544" y2="2.64" fill="none" stroke="#f0b90b" stroke-miterlimit="10" stroke-width="1" data-name="선 204" transform="translate(11.211 7.498)"/></g><g id="그룹_3800" data-name="그룹 3800" transform="translate(0.009 2.603)"><line id="선_205" x2="13.97" y1="8.065" fill="none" stroke="#f0b90b" stroke-miterlimit="10" stroke-width="1" data-name="선 205" transform="translate(0 1.069)"/><line id="선_206" x1="2.558" y1=".849" fill="none" stroke="#f0b90b" stroke-miterlimit="10" stroke-width="1" data-name="선 206" transform="translate(0.272 6.624)"/><line id="선_207" x1=".544" y2="2.64" fill="none" stroke="#f0b90b" stroke-miterlimit="10" stroke-width="1" data-name="선 207" transform="translate(2.3 7.498)"/><line id="선_208" x2=".544" y1="2.64" fill="none" stroke="#f0b90b" stroke-miterlimit="10" stroke-width="1" data-name="선 208" transform="translate(11.202)"/><line id="선_209" x2="2.558" y2=".849" fill="none" stroke="#f0b90b" stroke-miterlimit="10" stroke-width="1" data-name="선 209" transform="translate(11.216 2.664)"/></g></g><circle id="타원_188" cx="11" cy="11" r="11" fill="none" stroke="#f0b90b" stroke-miterlimit="10" stroke-width="1" data-name="타원 188" transform="translate(3717.578 1259.658)"/></g><rect id="사각형_1747" width="32" height="32" fill="none" data-name="사각형 1747" transform="translate(393 823)"/></g></svg>