<svg xmlns="http://www.w3.org/2000/svg" width="30" height="30" viewBox="0 0 30 30"><g id="symbol_none2" transform="translate(-265 -701)"><g id="타원_233" fill="#fff" stroke="#e6e6e6" stroke-width="1" data-name="타원 233" transform="translate(265 701)"><circle cx="15" cy="15" r="15" stroke="none"/><circle cx="15" cy="15" r="14.5" fill="none"/></g><g id="그룹_3967" data-name="그룹 3967" transform="translate(-3186.863 -601.823)"><circle id="타원_206" cx="6.984" cy="6.984" r="6.984" fill="none" stroke="#b2b6bc" stroke-miterlimit="10" stroke-width="1" data-name="타원 206" transform="translate(3457.772 1309.684)"/><circle id="타원_207" cx="5.33" cy="5.33" r="5.33" fill="none" stroke="#b2b6bc" stroke-miterlimit="10" stroke-width="1" data-name="타원 207" transform="translate(3459.427 1311.338)"/><path id="패스_2047" fill="none" stroke="#b2b6bc" stroke-linecap="round" stroke-miterlimit="10" stroke-width="1" d="M3467.075,1319.158a3.6,3.6,0,0,1,3.023-1.645" data-name="패스 2047" transform="translate(-5.092 -4.082)"/><path id="패스_2048" fill="none" stroke="#b2b6bc" stroke-linecap="round" stroke-miterlimit="10" stroke-width="1" d="M3465.871,1323.513a3.56,3.56,0,0,1,.125-.445" data-name="패스 2048" transform="translate(-4.553 -6.593)"/><line id="선_251" y2="1.69" fill="none" stroke="#b2b6bc" stroke-miterlimit="10" stroke-width="1" data-name="선 251" transform="translate(3464.653 1309.69)"/><line id="선_252" y2="1.637" fill="none" stroke="#b2b6bc" stroke-miterlimit="10" stroke-width="1" data-name="선 252" transform="translate(3464.653 1322.032)"/><line id="선_253" x2="1.195" y2="1.195" fill="none" stroke="#b2b6bc" stroke-miterlimit="10" stroke-width="1" data-name="선 253" transform="translate(3459.71 1311.737)"/><line id="선_254" x2="1.157" y2="1.157" fill="none" stroke="#b2b6bc" stroke-miterlimit="10" stroke-width="1" data-name="선 254" transform="translate(3468.437 1320.465)"/><line id="선_255" x2="1.69" fill="none" stroke="#b2b6bc" stroke-miterlimit="10" stroke-width="1" data-name="선 255" transform="translate(3457.663 1316.679)"/><line id="선_256" x2="1.637" fill="none" stroke="#b2b6bc" stroke-miterlimit="10" stroke-width="1" data-name="선 256" transform="translate(3470.005 1316.679)"/><line id="선_257" x2="1.195" y1="1.195" fill="none" stroke="#b2b6bc" stroke-miterlimit="10" stroke-width="1" data-name="선 257" transform="translate(3459.71 1320.427)"/><line id="선_258" x2="1.157" y1="1.157" fill="none" stroke="#b2b6bc" stroke-miterlimit="10" stroke-width="1" data-name="선 258" transform="translate(3468.437 1311.737)"/><path id="패스_2049" fill="none" stroke="#b2b6bc" stroke-miterlimit="10" stroke-width="1" d="M3478.606,1315.028a6.984,6.984,0,1,1-5.8,11.708" data-name="패스 2049" transform="translate(-8.592 -3.033)"/><path id="패스_2050" fill="none" stroke="#b2b6bc" stroke-miterlimit="10" stroke-width="1" d="M3482.7,1319.494a5.33,5.33,0,1,1-4.636,9.53" data-name="패스 2050" transform="translate(-11.577 -5.568)"/><line id="선_259" y2="1.637" fill="none" stroke="#b2b6bc" stroke-miterlimit="10" stroke-width="1" data-name="선 259" transform="translate(3469.219 1324.31)"/><line id="선_260" x2="1.157" y2="1.157" fill="none" stroke="#b2b6bc" stroke-miterlimit="10" stroke-width="1" data-name="선 260" transform="translate(3473.004 1322.742)"/><line id="선_261" x2="1.637" fill="none" stroke="#b2b6bc" stroke-miterlimit="10" stroke-width="1" data-name="선 261" transform="translate(3474.572 1318.957)"/><line id="선_262" x2="1.157" y1="1.157" fill="none" stroke="#b2b6bc" stroke-miterlimit="10" stroke-width="1" data-name="선 262" transform="translate(3473.004 1314.014)"/></g></g></svg>