<svg xmlns="http://www.w3.org/2000/svg" width="32" height="32" viewBox="0 0 32 32"><g id="assets_ic_none" transform="translate(-861 -84)"><g id="그룹_3967" data-name="그룹 3967" transform="translate(-2591.863 -1219.384)"><circle id="타원_206" cx="8.357" cy="8.357" r="8.357" fill="none" stroke="#59606a" stroke-miterlimit="10" stroke-width="1.2" data-name="타원 206" transform="translate(3457.793 1309.684)"/><circle id="타원_207" cx="6.378" cy="6.378" r="6.378" fill="none" stroke="#59606a" stroke-miterlimit="10" stroke-width="1.2" data-name="타원 207" transform="translate(3459.773 1311.664)"/><path id="패스_2047" fill="none" stroke="#59606a" stroke-linecap="round" stroke-miterlimit="10" stroke-width="1.2" d="M3467.076,1319.482a4.3,4.3,0,0,1,3.618-1.969" data-name="패스 2047" transform="translate(-4.243 -3.345)"/><path id="패스_2048" fill="none" stroke="#59606a" stroke-linecap="round" stroke-miterlimit="10" stroke-width="1.2" d="M3465.871,1323.6a4.348,4.348,0,0,1,.15-.533" data-name="패스 2048" transform="translate(-3.834 -5.257)"/><line id="선_251" y2="2.023" fill="none" stroke="#59606a" stroke-miterlimit="10" stroke-width="1.2" data-name="선 251" transform="translate(3466.027 1309.691)"/><line id="선_252" y2="1.958" fill="none" stroke="#59606a" stroke-miterlimit="10" stroke-width="1.2" data-name="선 252" transform="translate(3466.027 1324.461)"/><line id="선_253" x2="1.43" y2="1.43" fill="none" stroke="#59606a" stroke-miterlimit="10" stroke-width="1.2" data-name="선 253" transform="translate(3460.113 1312.141)"/><line id="선_254" x2="1.385" y2="1.385" fill="none" stroke="#59606a" stroke-miterlimit="10" stroke-width="1.2" data-name="선 254" transform="translate(3470.557 1322.585)"/><line id="선_255" x2="2.023" fill="none" stroke="#59606a" stroke-miterlimit="10" stroke-width="1.2" data-name="선 255" transform="translate(3457.663 1318.055)"/><line id="선_256" x2="1.958" fill="none" stroke="#59606a" stroke-miterlimit="10" stroke-width="1.2" data-name="선 256" transform="translate(3472.433 1318.055)"/><line id="선_257" x2="1.43" y1="1.43" fill="none" stroke="#59606a" stroke-miterlimit="10" stroke-width="1.2" data-name="선 257" transform="translate(3460.113 1322.54)"/><line id="선_258" x2="1.385" y1="1.385" fill="none" stroke="#59606a" stroke-miterlimit="10" stroke-width="1.2" data-name="선 258" transform="translate(3470.557 1312.141)"/><path id="패스_2049" fill="none" stroke="#59606a" stroke-miterlimit="10" stroke-width="1.2" d="M3479.748,1315.028a8.358,8.358,0,1,1-6.946,14.011" data-name="패스 2049" transform="translate(-7.305 -2.578)"/><path id="패스_2050" fill="none" stroke="#59606a" stroke-miterlimit="10" stroke-width="1.2" d="M3483.608,1319.494a6.379,6.379,0,1,1-5.548,11.4" data-name="패스 2050" transform="translate(-9.841 -4.733)"/><line id="선_259" y2="1.958" fill="none" stroke="#59606a" stroke-miterlimit="10" stroke-width="1.2" data-name="선 259" transform="translate(3471.492 1327.187)"/><line id="선_260" x2="1.385" y2="1.385" fill="none" stroke="#59606a" stroke-miterlimit="10" stroke-width="1.2" data-name="선 260" transform="translate(3476.022 1325.31)"/><line id="선_261" x2="1.958" fill="none" stroke="#59606a" stroke-miterlimit="10" stroke-width="1.2" data-name="선 261" transform="translate(3477.898 1320.781)"/><line id="선_262" x2="1.385" y1="1.385" fill="none" stroke="#59606a" stroke-miterlimit="10" stroke-width="1.2" data-name="선 262" transform="translate(3476.022 1314.866)"/></g><rect id="사각형_1843" width="32" height="32" fill="none" data-name="사각형 1843" transform="translate(861 84)"/></g></svg>