<svg xmlns="http://www.w3.org/2000/svg" width="32" height="32" viewBox="0 0 32 32"><g id="blocks_ic" transform="translate(4940 -7643)"><circle id="타원_208" cx="5" cy="5" r="5" fill="#ebba16" data-name="타원 208" transform="translate(-4919 7655)"/><g id="그룹_3969" data-name="그룹 3969" transform="translate(-5491 7559)"><g id="그룹_3961" data-name="그룹 3961" transform="translate(-968.549 -715.453)"><path id="패스_2032" fill="none" stroke="#222" stroke-linecap="round" stroke-linejoin="round" stroke-width="1.2" d="M1583.819,825.125v5.659l5.039-3.015v-5.644" data-name="패스 2032" transform="translate(-48.192 -14.037)"/><path id="패스_2033" fill="none" stroke="#222" stroke-linecap="round" stroke-linejoin="round" stroke-width="1.2" d="M1554.685,821.994v5.8l5.039,2.881" data-name="패스 2033" transform="translate(-24.096 -13.928)"/><path id="패스_2034" fill="none" stroke="#222" stroke-linejoin="round" stroke-width="1.2" d="M1559.723,811.088l-5.039-3.05,5.039-2.884,5.039,2.884Z" data-name="패스 2034" transform="translate(-24.096 0)"/><path id="패스_2035" fill="none" stroke="#222" stroke-linecap="round" stroke-linejoin="round" stroke-width="1.2" d="M1612.954,874.8v5.659l5.039-3.015V871.8" data-name="패스 2035" transform="translate(-72.288 -55.123)"/><path id="패스_2036" fill="none" stroke="#222" stroke-linecap="round" stroke-linejoin="round" stroke-width="1.2" d="M1583.819,871.672v5.8l5.039,2.881" data-name="패스 2036" transform="translate(-48.192 -55.014)"/><path id="패스_2037" fill="none" stroke="#222" stroke-linejoin="round" stroke-width="1.2" d="M1588.858,854.831l5.039,2.885-5.039,3.05-5.039-2.932" data-name="패스 2037" transform="translate(-48.192 -41.086)"/><path id="패스_2038" fill="none" stroke="#222" stroke-linecap="round" stroke-linejoin="round" stroke-width="1.2" d="M1554.685,874.8v5.659l5.039-3.015V871.8" data-name="패스 2038" transform="translate(-24.096 -55.123)"/><path id="패스_2039" fill="none" stroke="#222" stroke-linecap="round" stroke-linejoin="round" stroke-width="1.2" d="M1525.55,871.672v5.8l5.039,2.881" data-name="패스 2039" transform="translate(0 -55.014)"/><path id="패스_2040" fill="none" stroke="#222" stroke-linejoin="round" stroke-width="1.2" d="M1530.589,854.831l-5.039,2.885,5.039,3.05,5.039-2.932" data-name="패스 2040" transform="translate(0 -41.086)"/><line id="선_223" y2="1.79" fill="none" stroke="#222" stroke-linecap="round" stroke-linejoin="round" stroke-width="1.2" data-name="선 223" transform="translate(1527.25 819.59)"/><line id="선_224" y2="1.79" fill="none" stroke="#222" stroke-linecap="round" stroke-linejoin="round" stroke-width="1.2" data-name="선 224" transform="translate(1532.242 810.926)"/><line id="선_225" y2="1.79" fill="none" stroke="#222" stroke-linecap="round" stroke-linejoin="round" stroke-width="1.2" data-name="선 225" transform="translate(1537.336 819.546)"/></g><rect id="사각형_1841" width="32" height="32" fill="none" data-name="사각형 1841" transform="translate(551 84)"/></g></g></svg>